<svg width="40" height="41" viewBox="0 0 40 41" fill="none" xmlns="http://www.w3.org/2000/svg">
<path d="M37.6 0.842651H2.4C1.76348 0.842651 1.15303 1.14367 0.702944 1.67949C0.252856 2.21531 0 2.94203 0 3.69979V37.9855C0 38.7433 0.252856 39.47 0.702944 40.0058C1.15303 40.5416 1.76348 40.8427 2.4 40.8427H37.6C38.2365 40.8427 38.847 40.5416 39.2971 40.0058C39.7471 39.47 40 38.7433 40 37.9855V3.69979C40 2.94203 39.7471 2.21531 39.2971 1.67949C38.847 1.14367 38.2365 0.842651 37.6 0.842651ZM38.4 37.9855C38.4 38.2381 38.3157 38.4803 38.1657 38.6589C38.0157 38.8376 37.8122 38.9379 37.6 38.9379H2.4C2.18783 38.9379 1.98434 38.8376 1.83431 38.6589C1.68429 38.4803 1.6 38.2381 1.6 37.9855V3.69979C1.6 3.44721 1.68429 3.20497 1.83431 3.02636C1.98434 2.84775 2.18783 2.74741 2.4 2.74741H37.6C37.8122 2.74741 38.0157 2.84775 38.1657 3.02636C38.3157 3.20497 38.4 3.44721 38.4 3.69979V37.9855ZM28.8 11.3188C28.8 14.0973 27.8729 16.762 26.2225 18.7266C24.5722 20.6913 22.3339 21.795 20 21.795C17.6661 21.795 15.4278 20.6913 13.7775 18.7266C12.1271 16.762 11.2 14.0973 11.2 11.3188C11.2 11.0663 11.2843 10.824 11.4343 10.6454C11.5843 10.4668 11.7878 10.3665 12 10.3665C12.2122 10.3665 12.4157 10.4668 12.5657 10.6454C12.7157 10.824 12.8 11.0663 12.8 11.3188C12.8 13.5921 13.5586 15.7723 14.9088 17.3798C16.2591 18.9872 18.0904 19.8903 20 19.8903C21.9096 19.8903 23.7409 18.9872 25.0912 17.3798C26.4414 15.7723 27.2 13.5921 27.2 11.3188C27.2 11.0663 27.2843 10.824 27.4343 10.6454C27.5843 10.4668 27.7878 10.3665 28 10.3665C28.2122 10.3665 28.4157 10.4668 28.5657 10.6454C28.7157 10.824 28.8 11.0663 28.8 11.3188Z" fill="#67825B"/>
</svg>
