<svg width="161" height="58" viewBox="0 0 161 58" fill="none" xmlns="http://www.w3.org/2000/svg">
<g filter="url(#filter0_i_444_40)">
<path d="M38.912 35.84L36.704 41.408H20.992V40.352C22.08 40.352 22.8693 40.192 23.36 39.872C23.7227 39.616 23.904 39.168 23.904 38.528V21.92C23.904 21.216 23.7333 20.736 23.392 20.48C22.9867 20.2027 22.1867 20.064 20.992 20.064V19.04H29.088V20.064C27.68 20.064 26.8053 20.2027 26.464 20.48C26.1227 20.7573 25.952 21.2373 25.952 21.92V38.56C25.952 39.2 26.0907 39.648 26.368 39.904C26.688 40.16 27.2213 40.288 27.968 40.288H31.52C32.9707 40.288 34.1867 39.8933 35.168 39.104C36.192 38.3787 37.1733 37.152 38.112 35.424L38.912 35.84ZM53.8963 37.536C54.0029 37.6213 54.1096 37.7067 54.2163 37.792C54.3443 37.8773 54.4616 37.9627 54.5683 38.048C54.0563 38.816 53.4909 39.456 52.8723 39.968C52.2536 40.48 51.5923 40.9067 50.8883 41.248C49.9283 41.7173 48.8936 41.952 47.7843 41.952C45.6723 41.952 43.9443 41.28 42.6003 39.936C41.1709 38.5067 40.4563 36.576 40.4563 34.144C40.4563 31.7973 41.1389 29.9093 42.5043 28.48C43.8483 27.008 45.5549 26.272 47.6243 26.272C49.6936 26.272 51.3256 26.8693 52.5203 28.064C53.8003 29.28 54.4403 31.04 54.4403 33.344C52.4563 33.408 50.5043 33.4827 48.5843 33.568C46.6643 33.632 44.7016 33.696 42.6963 33.76C42.6963 33.8453 42.6856 33.9307 42.6643 34.016C42.6643 34.08 42.6643 34.1547 42.6643 34.24C42.6643 35.136 42.7816 35.9467 43.0163 36.672C43.2723 37.3973 43.6349 38.048 44.1043 38.624C45.0856 39.904 46.4616 40.544 48.2323 40.544C49.1709 40.544 50.1523 40.2987 51.1763 39.808C51.6456 39.5307 52.1043 39.2107 52.5523 38.848C53.0216 38.464 53.4696 38.0267 53.8963 37.536ZM42.7603 32.544C44.3603 32.5013 45.9389 32.448 47.4963 32.384C49.0536 32.32 50.6323 32.2667 52.2323 32.224C52.2109 30.816 51.7736 29.6853 50.9203 28.832C50.0456 27.8933 48.9469 27.424 47.6243 27.424C46.3443 27.424 45.2243 27.936 44.2643 28.96C43.3683 29.8987 42.8669 31.0933 42.7603 32.544ZM80.623 41.376H74.255V40.352C75.0443 40.352 75.6203 40.2347 75.983 40C76.239 39.744 76.367 39.3387 76.367 38.784V30.336C76.367 28.736 75.4817 27.936 73.711 27.936C72.367 27.936 70.9163 28.576 69.359 29.856V38.784C69.359 39.36 69.4977 39.7547 69.775 39.968C69.9883 40.0747 70.2337 40.16 70.511 40.224C70.7883 40.3093 71.1083 40.352 71.471 40.352V41.376H65.295V40.352C66.063 40.352 66.6283 40.2347 66.991 40C67.247 39.7867 67.375 39.3813 67.375 38.784V30.016C67.375 28.6507 66.5323 27.968 64.847 27.968C63.3323 27.968 61.8283 28.64 60.335 29.984V38.784C60.335 39.4027 60.4737 39.808 60.751 40C61.1777 40.2347 61.7857 40.352 62.575 40.352V41.376H56.111V40.352C57.0923 40.352 57.7643 40.1707 58.127 39.808C58.2977 39.5733 58.383 39.3067 58.383 39.008V29.824C58.383 29.4827 58.3297 29.216 58.223 29.024C58.1377 28.832 57.935 28.6827 57.615 28.576C57.4443 28.5333 57.2523 28.5013 57.039 28.48C56.8257 28.4373 56.5697 28.416 56.271 28.416C56.2497 28.3093 56.2283 28.2027 56.207 28.096C56.1857 27.968 56.1643 27.8507 56.143 27.744C56.847 27.5093 57.551 27.2747 58.255 27.04C58.959 26.8053 59.6523 26.5707 60.335 26.336V28.608C62.1697 27.0933 64.0043 26.336 65.839 26.336C67.631 26.336 68.7723 27.1253 69.263 28.704C71.0977 27.1253 72.9323 26.336 74.767 26.336C76.175 26.336 77.167 26.752 77.743 27.584C78.1483 28.1813 78.351 28.9813 78.351 29.984V38.784C78.351 39.36 78.4897 39.7547 78.767 39.968C78.9377 40.0747 79.183 40.16 79.503 40.224C79.823 40.3093 80.1963 40.352 80.623 40.352V41.376ZM96.0698 34.112C96.0698 36.5013 95.3871 38.4107 94.0218 39.84C92.7204 41.2693 91.0564 41.984 89.0298 41.984C86.9818 41.984 85.3071 41.2693 84.0058 39.84C82.6404 38.4107 81.9578 36.5013 81.9578 34.112C81.9578 31.7227 82.6404 29.8133 84.0058 28.384C85.3071 26.9547 86.9818 26.24 89.0298 26.24C91.0564 26.24 92.7204 26.9547 94.0218 28.384C95.3871 29.8133 96.0698 31.7227 96.0698 34.112ZM93.8938 34.112C93.8938 32.1493 93.4244 30.5387 92.4858 29.28C91.6111 28.0213 90.4591 27.392 89.0298 27.392C87.6218 27.392 86.4484 28.0213 85.5098 29.28C84.5924 30.5387 84.1338 32.1493 84.1338 34.112C84.1338 36.0533 84.5818 37.664 85.4778 38.944C86.3951 40.1813 87.5791 40.8 89.0298 40.8C90.4164 40.8 91.5684 40.1813 92.4858 38.944C93.4244 37.6853 93.8938 36.0747 93.8938 34.112ZM113.226 41.376H106.986V40.352C107.732 40.352 108.255 40.256 108.554 40.064C108.916 39.8293 109.098 39.3707 109.098 38.688V30.656C109.098 28.864 108.255 27.968 106.57 27.968C105.567 27.968 104.724 28.1387 104.042 28.48C103.743 28.6293 103.391 28.832 102.986 29.088C102.58 29.3227 102.132 29.6107 101.641 29.952V38.688C101.641 39.328 101.78 39.7547 102.058 39.968C102.228 40.0747 102.463 40.16 102.762 40.224C103.06 40.3093 103.423 40.352 103.85 40.352V41.376H97.6095V40.352C98.4202 40.352 99.0068 40.224 99.3695 39.968C99.5828 39.7547 99.6895 39.328 99.6895 38.688V29.856C99.6895 29.28 99.5828 28.9173 99.3695 28.768C99.0708 28.5333 98.5268 28.416 97.7375 28.416C97.6948 28.3093 97.6628 28.192 97.6415 28.064C97.6415 27.936 97.6202 27.8187 97.5775 27.712C98.2602 27.4773 98.9322 27.2427 99.5935 27.008C100.276 26.7733 100.959 26.5387 101.641 26.304V28.576C103.455 27.0827 105.3 26.336 107.178 26.336C108.479 26.336 109.45 26.7093 110.09 27.456C110.73 28.224 111.05 29.312 111.05 30.72V38.656C111.05 39.3173 111.178 39.7547 111.434 39.968C111.604 40.0747 111.839 40.16 112.138 40.224C112.436 40.3093 112.799 40.352 113.226 40.352V41.376ZM119.573 20.224C119.573 20.736 119.403 21.1627 119.061 21.504C118.72 21.8453 118.293 22.016 117.781 22.016C117.312 22.016 116.917 21.8453 116.597 21.504C116.299 21.1627 116.149 20.736 116.149 20.224C116.149 19.712 116.309 19.2853 116.629 18.944C116.949 18.6027 117.333 18.432 117.781 18.432C118.293 18.432 118.72 18.6027 119.061 18.944C119.403 19.2853 119.573 19.712 119.573 20.224ZM121.077 41.408H115.093V40.352C115.968 40.352 116.533 40.224 116.789 39.968C117.003 39.776 117.109 39.424 117.109 38.912V29.696C117.109 29.2267 117.013 28.9067 116.821 28.736C116.587 28.544 116.021 28.448 115.125 28.448L114.997 27.744L119.061 26.208V38.912C119.061 39.5093 119.157 39.8827 119.349 40.032C119.627 40.2453 120.203 40.352 121.077 40.352V41.408ZM135.412 37.536C135.518 37.6213 135.625 37.696 135.732 37.76C135.838 37.824 135.945 37.8987 136.052 37.984C134.494 40.6293 132.404 41.952 129.78 41.952C127.902 41.952 126.302 41.2907 124.98 39.968C123.657 38.5173 122.996 36.6933 122.996 34.496C122.996 32.2133 123.721 30.2507 125.172 28.608C126.58 27.072 128.34 26.304 130.452 26.304C131.71 26.304 132.809 26.5493 133.748 27.04C134.089 27.2107 134.398 27.4133 134.676 27.648C134.974 27.8827 135.22 28.16 135.412 28.48C135.625 28.8427 135.732 29.2053 135.732 29.568C135.732 29.952 135.625 30.3147 135.412 30.656C135.198 30.9973 134.878 31.168 134.452 31.168C133.684 31.168 133.172 30.5707 132.916 29.376C132.852 29.056 132.724 28.7893 132.532 28.576C132.34 28.3627 132.105 28.1707 131.828 28C131.273 27.6587 130.59 27.488 129.78 27.488C128.564 27.488 127.486 28.1173 126.548 29.376C125.609 30.6987 125.14 32.256 125.14 34.048C125.14 35.008 125.257 35.8827 125.492 36.672C125.748 37.4613 126.121 38.144 126.612 38.72C127.614 39.9147 128.862 40.512 130.356 40.512C132.19 40.512 133.876 39.52 135.412 37.536Z" fill="#67825B"/>
<path d="M3.92299 21.6525V21.6525C2.82164 23.2238 2.06099 25.008 1.68987 26.8906L1.42514 28.2335C1.14291 29.6651 1.04858 31.1294 1.14426 32.5854V32.5854C1.32358 35.3143 2.16768 37.9617 3.60255 40.2898V40.2898C6.65646 45.2448 12.0609 48.2624 17.8814 48.2624H29.8123H40.2515H62.9437C66.7336 48.2624 70.5117 48.6848 74.208 49.5219L83.1769 51.553C85.1586 52.0018 87.021 52.8708 88.638 54.1012V54.1012C91.1095 55.9817 94.1293 57 97.2349 57H99.2489C102.729 57 106.149 56.0998 109.178 54.3868L112.282 52.6312C117.346 49.7674 123.065 48.2624 128.882 48.2624C136.014 48.2624 143.54 48.2624 144.226 48.2624C144.967 48.2624 148.487 45.9504 151.455 43.8883C153.221 42.6607 154.248 40.6342 154.248 38.4829V38.4829C154.248 34.5547 160.721 32.2853 159.955 28.4325C159.658 26.935 157.835 24.7453 153.413 21.6525" stroke="#67825B"/>
<path d="M2.25293 24.8298V24.8298C6.04486 15.6931 14.9644 9.73764 24.8568 9.73764H29.8125H40.2518H62.944C66.7338 9.73764 70.5119 9.31519 74.2082 8.47814L83.1771 6.44704C85.1589 5.99825 87.0212 5.12928 88.6383 3.89885V3.89885C91.1097 2.01833 94.1296 1.00005 97.2351 1.00005H99.2491C102.729 1.00005 106.149 1.90026 109.178 3.61318L112.282 5.36884C117.346 8.23261 123.066 9.72167 128.88 9.91642C136.054 10.1567 143.637 10.5925 144.227 10.9291C146.314 12.1206 150.49 19.5343 153.413 21.6525" stroke="#67825B"/>
</g>
<defs>
<filter id="filter0_i_444_40" x="0.60791" y="0.5" width="159.911" height="61" filterUnits="userSpaceOnUse" color-interpolation-filters="sRGB">
<feFlood flood-opacity="0" result="BackgroundImageFix"/>
<feBlend mode="normal" in="SourceGraphic" in2="BackgroundImageFix" result="shape"/>
<feColorMatrix in="SourceAlpha" type="matrix" values="0 0 0 0 0 0 0 0 0 0 0 0 0 0 0 0 0 0 127 0" result="hardAlpha"/>
<feOffset dy="4"/>
<feGaussianBlur stdDeviation="2"/>
<feComposite in2="hardAlpha" operator="arithmetic" k2="-1" k3="1"/>
<feColorMatrix type="matrix" values="0 0 0 0 0 0 0 0 0 0 0 0 0 0 0 0 0 0 0.25 0"/>
<feBlend mode="normal" in2="shape" result="effect1_innerShadow_444_40"/>
</filter>
</defs>
</svg>
